<svg xmlns="http://www.w3.org/2000/svg" width="27.439" height="34" viewBox="0 0 27.439 34">
  <g id="shopping_bag_32" transform="translate(-10.3 -6.8)">
    <g id="Group_803" data-name="Group 803" transform="translate(10.3 6.8)">
      <path id="Path_234" data-name="Path 234" d="M12.885,40.8A2.286,2.286,0,0,1,11.1,40a2.159,2.159,0,0,1-.8-1.789l2.585-22.07a2.159,2.159,0,0,1,.8-1.789,2.489,2.489,0,0,1,1.789-.8h2.088v-.4a6.154,6.154,0,0,1,1.889-4.474A5.651,5.651,0,0,1,23.92,6.8a6.154,6.154,0,0,1,4.474,1.889,6.383,6.383,0,0,1,1.889,4.474v.4h2.287a2.159,2.159,0,0,1,1.789.8,2.489,2.489,0,0,1,.8,1.789l2.585,22.07a2.286,2.286,0,0,1-.8,1.789,2.159,2.159,0,0,1-1.789.8Zm7.158-27.439v.4H27.7v-.4a3.919,3.919,0,0,0-.994-2.684A3.428,3.428,0,0,0,23.92,9.484a3.753,3.753,0,0,0-2.684.994A3.625,3.625,0,0,0,20.043,13.361ZM12.885,38.315h22.07L32.37,16.244H30.282v3.778a1.388,1.388,0,0,1-.3.895,1.491,1.491,0,0,1-1.789,0c-.3-.1-.3-.5-.3-.895V16.244H20.242v3.778a1.388,1.388,0,0,1-.3.895,1.6,1.6,0,0,1-.895.3,1.388,1.388,0,0,1-.895-.3,1.6,1.6,0,0,1-.3-.895V16.244H15.47Zm0,0,2.585-22.07Z" transform="translate(-10.3 -6.8)" fill="#d4d4d4"/>
    </g>
    <g id="Group_815" data-name="Group 815" transform="translate(12.4 30.2)">
      <g id="Group_809" data-name="Group 809">
        <g id="Group_804" data-name="Group 804" transform="translate(4.959)">
          <path id="Path_235" data-name="Path 235" d="M20,33.2l-.9-.9-.9.9-.8-.9,1.7-1.9,1.8,1.9Z" transform="translate(-17.4 -30.4)" fill="#d4d4d4"/>
        </g>
        <g id="Group_805" data-name="Group 805">
          <path id="Path_236" data-name="Path 236" d="M15.3,33.2l-1-.9-1,.9-.9-.9,1.9-1.9,1.8,1.9Z" transform="translate(-12.4 -30.4)" fill="#d4d4d4"/>
        </g>
        <g id="Group_806" data-name="Group 806" transform="translate(14.579)">
          <path id="Path_237" data-name="Path 237" d="M28,33.2l-.9-.9,1.8-1.9,1.7,1.9-.8.9-.9-.9Z" transform="translate(-27.1 -30.4)" fill="#d4d4d4"/>
        </g>
        <g id="Group_807" data-name="Group 807" transform="translate(19.339)">
          <path id="Path_238" data-name="Path 238" d="M32.7,33.2l-.8-.9,1.8-1.9,1.8,1.9-.9.9-.9-.9Z" transform="translate(-31.9 -30.4)" fill="#d4d4d4"/>
        </g>
        <g id="Group_808" data-name="Group 808" transform="translate(9.719)">
          <path id="Path_239" data-name="Path 239" d="M23.1,33.2l-.9-.9L24,30.4l1.8,1.9-.9.9-.9-.9Z" transform="translate(-22.2 -30.4)" fill="#d4d4d4"/>
        </g>
      </g>
      <g id="Group_814" data-name="Group 814" transform="translate(2.4 3.8)">
        <g id="Group_810" data-name="Group 810" transform="translate(4.847)">
          <path id="Path_240" data-name="Path 240" d="M22.5,36.9l-1-1-.9,1-.9-.9,1.8-1.8L23.3,36Z" transform="translate(-19.7 -34.2)" fill="#d4d4d4"/>
        </g>
        <g id="Group_811" data-name="Group 811">
          <path id="Path_241" data-name="Path 241" d="M17.7,36.9l-1.1-1-.9,1-.9-.9,1.8-1.8,2,1.8Z" transform="translate(-14.8 -34.2)" fill="#d4d4d4"/>
        </g>
        <g id="Group_812" data-name="Group 812" transform="translate(14.439)">
          <path id="Path_242" data-name="Path 242" d="M30.3,36.9l-.9-.9,2-1.8L33.2,36l-.9.9-.9-1Z" transform="translate(-29.4 -34.2)" fill="#d4d4d4"/>
        </g>
        <g id="Group_813" data-name="Group 813" transform="translate(9.792)">
          <path id="Path_243" data-name="Path 243" d="M25.5,36.9l-.8-.9,1.8-1.8L28.3,36l-.9.9-.9-1Z" transform="translate(-24.7 -34.2)" fill="#d4d4d4"/>
        </g>
      </g>
    </g>
    <g id="Group_827" data-name="Group 827" transform="translate(12.4 22.883)">
      <g id="Group_821" data-name="Group 821">
        <g id="Group_816" data-name="Group 816" transform="translate(4.959)">
          <path id="Path_244" data-name="Path 244" d="M20,25.7l-.9-.8-.9.8-.8-.8L19.1,23l1.8,1.9Z" transform="translate(-17.4 -23)" fill="#d4d4d4"/>
        </g>
        <g id="Group_817" data-name="Group 817">
          <path id="Path_245" data-name="Path 245" d="M15.3,25.7l-1-.8-1,.8-.9-.8L14.3,23l1.8,1.9Z" transform="translate(-12.4 -23)" fill="#d4d4d4"/>
        </g>
        <g id="Group_818" data-name="Group 818" transform="translate(14.579)">
          <path id="Path_246" data-name="Path 246" d="M28,25.7l-.9-.8L28.9,23l1.7,1.9-.8.8-.9-.8Z" transform="translate(-27.1 -23)" fill="#d4d4d4"/>
        </g>
        <g id="Group_819" data-name="Group 819" transform="translate(19.339)">
          <path id="Path_247" data-name="Path 247" d="M32.7,25.7l-.8-.8L33.7,23l1.8,1.9-.9.8-.9-.8Z" transform="translate(-31.9 -23)" fill="#d4d4d4"/>
        </g>
        <g id="Group_820" data-name="Group 820" transform="translate(9.719)">
          <path id="Path_248" data-name="Path 248" d="M23.1,25.7l-.9-.8L24,23l1.8,1.9-.9.8-.9-.8Z" transform="translate(-22.2 -23)" fill="#d4d4d4"/>
        </g>
      </g>
      <g id="Group_826" data-name="Group 826" transform="translate(2.4 3.7)">
        <g id="Group_822" data-name="Group 822" transform="translate(4.847)">
          <path id="Path_249" data-name="Path 249" d="M22.5,29.4l-1-.9-.9.9-.9-.9,1.8-1.8,1.8,1.8Z" transform="translate(-19.7 -26.7)" fill="#d4d4d4"/>
        </g>
        <g id="Group_823" data-name="Group 823">
          <path id="Path_250" data-name="Path 250" d="M17.7,29.4l-1.1-.9-.9.9-.9-.9,1.8-1.8,2,1.8Z" transform="translate(-14.8 -26.7)" fill="#d4d4d4"/>
        </g>
        <g id="Group_824" data-name="Group 824" transform="translate(14.439)">
          <path id="Path_251" data-name="Path 251" d="M30.3,29.4l-.9-.9,2-1.8,1.8,1.8-.9.9-.9-.9Z" transform="translate(-29.4 -26.7)" fill="#d4d4d4"/>
        </g>
        <g id="Group_825" data-name="Group 825" transform="translate(9.792)">
          <path id="Path_252" data-name="Path 252" d="M25.5,29.4l-.8-.9,1.8-1.8,1.8,1.8-.9.9-.9-.9Z" transform="translate(-24.7 -26.7)" fill="#d4d4d4"/>
        </g>
      </g>
    </g>
  </g>
</svg>
