<?xml version="1.0" encoding="utf-8"?>
<!-- Generator: Adobe Illustrator 24.2.0, SVG Export Plug-In . SVG Version: 6.00 Build 0)  -->
<svg version="1.1" id="Layer_1" xmlns="http://www.w3.org/2000/svg" xmlns:xlink="http://www.w3.org/1999/xlink" x="0px" y="0px"
	 viewBox="0 0 1024 1024" style="enable-background:new 0 0 1024 1024;" xml:space="preserve">
<style type="text/css">
	.st0{fill:#D4D4D4;}
</style>
<path class="st0" d="M711.4,172.6c0-35.9,0-71.7,0-107.6c0-24,10.6-34.5,34.7-34.5c71.4,0,142.8,0,214.1,0
	c23.9,0,34.7,10.8,34.7,34.7c0,71.4,0,142.8,0,214.2c0,24.2-10.4,34.8-34.4,34.8c-71.7,0.1-143.4,0.1-215.1,0
	c-23.6,0-33.9-10.4-34-34C711.4,244.4,711.4,208.5,711.4,172.6z M768.3,257h169.1V88.5H768.3V257z"/>
<path class="st0" d="M711.4,853.2c0-35.9-0.1-71.7,0-107.6c0.1-23.8,10.3-34.2,33.8-34.2c72-0.1,144.1-0.1,216.1,0
	c22.9,0,33.6,10.8,33.7,33.5c0.1,72.1,0.1,144.1,0,216.2c0,22.7-11.1,33.9-33.5,33.9c-72.4,0.1-144.8,0.1-217.1,0
	c-22,0-32.8-11-32.9-33.3C711.3,925.6,711.4,889.4,711.4,853.2z M768.8,768.4v168.8h168.5V768.4H768.8z"/>
<path class="st0" d="M314.3,171.9c0,35.9,0,71.7,0,107.6c0,24.5-10,34.8-34.2,34.9c-71.7,0.1-143.4,0.1-215.1,0
	c-23.5,0-34.2-10.8-34.3-34c-0.1-71.7-0.1-143.4,0-215.2c0-23.8,10.9-34.5,34.9-34.5c71.4,0,142.7,0,214.1,0
	c24,0,34.5,10.5,34.5,34.7C314.4,100.8,314.3,136.3,314.3,171.9z M257.2,257.3V88.5H88.6v168.8H257.2z"/>
<path class="st0" d="M314.3,853.5c0,35.9,0.1,71.7,0,107.6c-0.1,23.3-10.8,33.9-34.3,33.9c-71.7,0.1-143.4,0.1-215.1,0
	c-23.2,0-34.1-11-34.1-34.3c0-71.7,0-143.4,0-215.2c0-23.4,10.6-34.2,34-34.2c72.1-0.1,144.1-0.1,216.1,0
	c23.1,0,33.3,10.5,33.4,33.6C314.4,781.2,314.3,817.4,314.3,853.5z M257.4,768.5H88.7v168.7h168.8L257.4,768.5z"/>
<path class="st0" d="M371.2,852.7c0-36.2,0-72.4,0-108.6c0-21.7,10.5-32.7,32.2-32.7c73-0.2,146.1-0.2,219.1,0
	c21.2,0,31.9,11.1,31.9,32c0.1,73.1,0.1,146.1,0,219.2c0,21.3-11.2,32.4-32.7,32.5c-72.7,0.1-145.4,0.1-218.1,0
	c-21.4,0-32.4-11.3-32.4-32.7C371.2,925.8,371.2,889.3,371.2,852.7z M428.2,937.2h169.2V768.5H428.2L428.2,937.2z"/>
<path class="st0" d="M654.5,173.2c0,36.2,0,72.4,0,108.6c0,21.1-10.6,32.4-31.5,32.5c-73.4,0.2-146.7,0.2-220.1,0
	c-21-0.1-31.6-11.2-31.7-32.3c-0.1-73.1-0.1-146.1,0-219.2c0-20.8,11.2-32.1,32-32.1c73-0.1,146.1-0.1,219.1,0
	c21.3,0,32.1,11.3,32.2,33C654.6,100.2,654.6,136.7,654.5,173.2z M597.5,88.5h-169V257h169V88.5z"/>
<path class="st0" d="M171.9,654.5c-35.9,0-71.7,0-107.6,0c-22.7,0-33.5-10.9-33.5-33.7c-0.1-72.1-0.1-144.1,0-216.2
	c0-22.7,10.9-33.5,33.6-33.6c72.4-0.1,144.8-0.1,217.1,0c21.8,0,32.7,10.5,32.8,32.1c0.2,73.1,0.2,146.1,0,219.2
	c0,21.5-11,32-32.9,32.1C244.9,654.6,208.4,654.5,171.9,654.5z M257.1,597.4V428.2H88.3v169.2L257.1,597.4z"/>
<path class="st0" d="M853.8,654.5c-36.5,0-73,0.1-109.6,0c-21.7,0-32.7-10.6-32.8-32.2c-0.1-73.1-0.1-146.1,0-219.1
	c0-21.1,11-32,31.9-32c73-0.1,146.1-0.1,219.1,0c21.3,0,32.4,11.1,32.5,32.7c0.1,72.7,0.1,145.4,0,218.1c0,21.5-11.2,32.5-32.6,32.5
	C926.2,654.6,890,654.5,853.8,654.5z M937.3,597.5V428.2H768.8v169.4L937.3,597.5z"/>
<path class="st0" d="M511.8,654.5c-35.9,0-71.7,0-107.6,0c-22.2,0-33-10.8-33-32.9c-0.1-72.7-0.1-145.4,0-218.2
	c0-21.4,11-32.3,32.6-32.3c72.7-0.1,145.4-0.1,218.1,0c21.6,0,32.5,10.9,32.5,32.4c0.1,72.7,0.1,145.4,0,218.2
	c0,22.1-10.8,32.8-33.1,32.8C584.9,654.6,548.3,654.6,511.8,654.5z M428.4,428.1v169.3h168.7V428.1H428.4z"/>
</svg>
