<?xml version="1.0" encoding="utf-8"?>
<!-- Generator: Adobe Illustrator 24.2.0, SVG Export Plug-In . SVG Version: 6.00 Build 0)  -->
<svg version="1.1" id="Layer_1" xmlns="http://www.w3.org/2000/svg" xmlns:xlink="http://www.w3.org/1999/xlink" x="0px" y="0px"
	 viewBox="0 0 618.8 994.8" style="enable-background:new 0 0 618.8 994.8;" xml:space="preserve">
<style type="text/css">
	.st0{fill:#D4D4D4;}
</style>
<path class="st0" d="M20.4,349v-35.5c0.9-2.1-0.4-4.4,0.7-6.5l0,0c0.5-5.2,0.7-10.5,1.4-15.7c0-0.9,0.3-1.8,0.8-2.6l0,0
	c0.5-3.5,0.8-7,1.4-10.5c0.1-0.8,0.1-1.6,0.8-2.2l0,0c2.7-15.7,7-31,12.8-45.8c0.6-1.6,0.7-3.4,2-4.8l0,0c1-3.7,2.4-7.2,4.3-10.5
	l0,0c3.6-8.7,7.5-17.3,12.7-25.3l0,0c3.1-6.6,7.2-12.6,11.3-18.6c1.5-1.6,2.7-3.3,3.6-5.3c0.4-1,1-2,1.9-2.7l0,0
	c3.4-5.9,7.9-10.9,12.1-16.1c10.7-12.9,22.4-24.9,35.2-35.8c0.4-0.3,0.8-0.6,1.2-0.8l0,0c9.9-9.2,21.1-16.5,32.2-24.1
	c0.9-0.5,1.9-0.9,2.8-1.3c10.5-5.9,20.9-11.9,31.9-16.8c17.5-7.9,35.6-14.1,54.2-18.5c26.4-6.3,53.1-8.3,80-7.2
	c14.6,0.6,29.1,2.4,43.4,5.4c26.6,5.4,52.3,14.6,76.3,27.1c17.3,9.1,33.7,19.8,48.8,32.2c2,1.6,2,2.6,0.2,4.4
	c-23.7,23.1-47.3,46.3-70.9,69.5c-1.6,1.6-2.7,1.1-4.1,0c-14.2-10.3-29.8-18.5-46.4-24.3c-13.3-4.7-27.2-7.8-41.2-9.3
	c-10.7-1.2-21.5-1.4-32.2-0.7c-24.1,1.4-47.7,7.6-69.3,18.3c-31.9,15.6-58.7,40.2-77,70.6c-11.5,18.9-19.4,39.8-23.4,61.5
	c-2.9,15.5-3.8,31.4-2.7,47.2c1.8,30,11.2,59.1,27.3,84.5c23.2,36.7,55.2,62.4,96,77.1c1.6,0.6,3.4,0.9,5,1.3c2.1,0.7,4.5,0.8,6.5,2
	c0.2,0.1,0.4,0.2,0.6,0.1c2.5,1,5.5,0.5,7.9,2.1l1.2,0.1c3.3,1,6.8,0.7,10,2.1h1.2c1.8,0.4,3.7,0.7,5.5,0.8c2.2,0.4,3,1.5,3.1,3.5
	c0,0.9,0,1.9,0,2.8v424.9c0,1.1,0,2.1,0,3.2s-0.2,2-1.3,2.3c-1.3,0.4-1.4-0.8-1.8-1.6c-3.2-6.1-6-12.4-8.8-18.7l0,0
	c-1.2-1.2-1.4-2.8-2.1-4.2l0,0c-1.3-1.1-1.2-2.9-2.1-4.2l0,0c-3-5.8-6-11.5-8.5-17.6l0,0c-2.4-4.3-4.6-8.7-6.4-13.3l0,0
	c-1.2-1.2-1.5-2.8-2.1-4.2l0,0c-1.4-1.1-1.2-2.9-2.1-4.2l0,0c-1.7-2.9-3.1-6-4.3-9.1l0,0c-1.2-1.2-1.4-2.8-2.1-4.2l0,0
	c-1.3-1.1-1.2-2.9-2.1-4.2l0,0c-1.4-1.1-1.2-2.9-2.1-4.2l0,0c-2.4-4.3-4.5-8.8-6.4-13.3l0,0c-1.2-1.2-1.4-2.9-2.1-4.4
	c0.1-0.2,0-0.4-0.1-0.5c-1.6-2.7-3-5.5-4.1-8.5l0,0c-1.2-1.2-1.4-2.8-2.1-4.2l0,0c-1.3-1.1-1.2-2.9-2.1-4.2l0,0
	c-1.8-2.8-2.9-6-4.3-9.1l0,0c-1.2-1.2-1.4-2.8-2.1-4.2l0,0c-1.3-1.1-1.2-2.9-2.1-4.2l0,0c-1.4-1.1-1.2-2.9-2.1-4.2l0,0
	c-2.1-3.9-4-7.8-5.7-11.9l-0.6-1.4c-1.1-1.3-1.2-3.1-2.1-4.5c0.1-0.2,0-0.4-0.1-0.5c-0.8-1.2-1.5-2.4-2-3.8c0.1-0.1,0.1-0.3-0.1-0.4
	c-1.1-1.2-1.4-2.8-2.1-4.2l0,0c-1.2-1.2-1.4-2.8-2.1-4.2l0,0c-1.3-1.1-1.2-2.9-2.1-4.2l0,0c-1.8-2.8-2.9-6-4.3-9.1l0,0
	c-1.2-1.2-1.4-2.8-2.1-4.2l0,0c-1.3-1.1-1.2-2.9-2.1-4.2l0,0c-1.4-1.1-1.2-2.9-2.1-4.2l0,0c-2.4-4.3-4.5-8.8-6.4-13.3l0,0
	c-1.2-1.2-1.2-3-2.1-4.4c0.1-0.2,0-0.4-0.1-0.5c-0.8-1.2-1.5-2.4-2-3.8c0.1-0.1,0.1-0.3-0.1-0.5c-1.1-1.2-1.4-2.8-2.1-4.2l0,0
	c-1.2-1.2-1.4-2.8-2.1-4.2l0,0c-1.3-1.1-1.2-2.9-2.1-4.2l0,0c-1.4-1.1-1.2-2.9-2.1-4.2l0,0c-1.2-1.4-1.5-3.3-2.2-4.9l0,0
	c-1.2-1.2-1.4-2.8-2.1-4.2l0,0c-1.3-1.1-1.2-2.9-2.1-4.2l0,0c-1.4-1.1-1.2-2.9-2.1-4.2l0,0c-2.2-4.4-4.6-8.8-6.4-13.4l0,0
	c-1.2-1.2-1.1-3-2.1-4.2l0,0c-1-1.3-1.3-3-2.1-4.4c0.1-0.1,0.1-0.3-0.1-0.5c-1.1-1.2-1.4-2.8-2.1-4.2l0,0c-2.4-4.1-4.5-8.3-6.3-12.7
	l0,0c-2.9-5.8-6-11.5-8.5-17.6l0,0c-8.8-18-17.5-36-26.2-54.1c-6.7-13.9-13.4-27.9-20.2-41.8c-2.1-4-4.1-8.1-5.7-12.4l0,0
	c-3.4-6.6-6.8-13.2-9.8-19.9c-0.2-1.8-1.3-3.1-2.1-4.5c-4.8-9.2-9.2-18.7-13.5-28.2l0,0c-1.2-1.2-1.5-2.8-2.1-4.2l0,0
	c-3.7-7.2-7.4-14.3-10.5-21.8l0,0c-3.1-5.8-5.7-11.8-7.5-18.1c-0.6-2.2-1.4-4.4-2.4-6.5c-3.8-11.8-7.4-23.6-9.2-35.8h0
	c-0.7-3.5-0.3-7.9-1.1-12.1l0,0c-1.6-4.5-1.3-9.2-1.8-13.9c-0.2-1.5,0.3-3-0.3-4.4l0,0C20,353.5,21.3,351.1,20.4,349z"/>
<path class="st0" d="M429.9,746.1l-0.2,0.2l0.1,0.2c-0.8,1.5-0.8,3.3-2.1,4.5v-0.1c-2.5,6-5.3,11.9-8.5,17.6l0,0
	c-0.8,1.4-0.7,3.2-2.1,4.3l0,0c-0.9,1.3-0.8,3.2-2.1,4.3l0,0c-1.8,4.6-4,9-6.4,13.3l0,0c-0.8,1.4-0.7,3.2-2.1,4.3l0,0
	c-0.6,1.5-0.9,3.1-2.1,4.3l0,0c-0.7,1.4-0.9,3.1-2.1,4.3l0,0c-0.7,1.4-1,3-2.1,4.2l-0.2,0.2l0.1,0.2c-0.8,1.5-0.8,3.3-2.1,4.5v-0.1
	c-2.5,6-5.3,11.9-8.5,17.6l0,0c-0.8,1.4-0.7,3.2-2.1,4.3l0,0c-0.8,1.3-0.8,3.2-2.1,4.3l0,0c-0.4,0.6-0.3,1.5-1,2
	c-1.1,1.3-1.8,2.9-2,4.7c-1.5,2-1.7,4.7-3.4,6.6l0,0c-0.8,1.4-0.7,3.2-2.1,4.3l0,0c-0.6,1.5-0.9,3.1-2.1,4.3l0,0
	c-3,7.3-6.6,14.4-10.1,21.5c-2.2,4.6-4.2,9.3-6.9,13.6l0,0c-0.8,1.4-0.8,3.2-2.1,4.3l0,0c-3.5,8-7.2,16-11.4,23.8
	c-1.2,1.7-2,3.6-2.6,5.6c-3.2,6.8-6.3,13.5-9.8,20.2c-0.4,0.8-0.4,2.1-1.6,1.9s-1.2-1.5-1.2-2.6c-0.1-1.3,0-2.6,0-3.9V521
	c0-6.4,0-6.4,6.3-7c1-0.1,2.1,0.2,3.1-0.3h1.1c3.2-1.4,6.8-1.1,10.1-2.1c0.1,0.1,0.2,0.2,0.3,0.1c0,0,0.1-0.1,0.1-0.1
	c2.5-1.2,5.3-1.4,8-2.1c9.6-2.1,18.9-5.3,27.6-9.7c52.5-25.1,86.7-65.6,102.4-121.7c0.5-2,1.5-4,1.2-6.1c-0.3-2.4-2.2-1.2-3.3-1.2
	c-14.2-0.1-28.3-0.1-42.5-0.1c-6.7,0-13.4-0.1-20,0c-2.9,0.1-3.9-1.1-3.9-3.9c0-32.4,0-64.8,0-97.3c0-2.8,0.9-3.6,3.7-3.6
	c54.8,0.1,109.5,0.1,164.3,0c2.8,0,4.1,0.8,4.5,3.6c0.7,5.6,2,11.2,3,16.8c1.8,10,2.2,20.1,3,30.1v29.6c-0.4,8.1-0.8,16.3-2,24.3
	c-1.7,11.9-4.1,23.7-7.1,35.3c-2.9,11.5-6.5,22.9-10.8,34c-2.7,6.8-6.1,13.3-9.5,19.8c-1.5,3-2.7,6.1-4.6,8.9l0,0
	c-0.6,1.5-0.9,3.1-2.1,4.3l0,0c-3.7,8.9-8.2,17.4-12.3,26.1c-3.9,8.1-7.8,16.3-11.8,24.4c-1,2.2-1.8,4.5-3.3,6.4l0,0
	c-2.1,5.7-5,11-7.6,16.4c-6.2,12.8-12.3,25.5-18.5,38.3c-5.9,12.2-11.8,24.5-17.8,36.7c-6.6,13.5-13,27-19.5,40.5
	c-2.4,5-4.5,10.2-7.5,14.9l0,0c-0.7,1.4-0.9,3.1-2.1,4.2l0,0c-0.9,1.6-1,3.5-2.2,4.9l0-0.1c-0.9,1.3-1.1,3-2.1,4.3v-0.1
	c-2.5,6-5.3,11.9-8.5,17.6l0,0c-0.8,1.4-0.7,3.2-2.1,4.3l0,0c-0.9,1.3-0.8,3.2-2.1,4.3l0,0c-0.6,1.5-0.9,3.1-2.1,4.3l0,0
	c-0.8,1.6-0.8,3.6-2.2,4.9l0,0c-0.7,1.4-0.9,3.1-2.1,4.3l0,0c-0.8,1.4-0.7,3.2-2.1,4.3l0,0c-0.9,1.3-0.8,3.2-2.1,4.3l0,0
	c-0.7,1.4-0.9,3.1-2.1,4.3l0,0C431.2,743.3,431,744.9,429.9,746.1z"/>
<path class="st0" d="M250.1,367.3c-4.6-7.6-8.5-15.4-10.7-24.2c-8.3-33.9,11.9-70,45.1-80.4c20.8-6.5,40.6-4.2,58.8,7.7
	c30.1,19.6,39.8,59.2,22.1,90.5c-0.4,0.7-0.7,1.5-1,2.2c-3.9,7-9.2,13.1-15.5,18c-4.9,3.9-10.1,7.4-16.1,9.4l0,0
	c-4.3,2.6-9.1,3.6-14.1,4.3l0,0c-5.2,1.7-10.7,1.7-16.1,1.3c-3.3-0.2-6.7,0.3-9.8-1.3h0c-2.9-0.6-5.9-0.6-8.5-2.2h0.1
	c-11.6-3.2-21-9.8-29.1-18.6C253.5,372,251.2,370.1,250.1,367.3z"/>
<path class="st0" d="M338.8,513.7c-2.1,0.8-4.3,1.2-6.5,1.2c-1.8,0.1-2.5,0.9-2.4,2.6c0,0.9,0,1.9,0,2.8c0,141.7,0,283.4,0,425.1
	c0,1.6-0.3,3.2,0.8,5.7l11.4-23.8c0.5-0.4,0.3-1.3,1-1.5l0.5,0.2c-1.6,5.8-4.9,11-7.3,16.5c-1.2,2.8-2.7,5.4-3.9,8.1
	c-0.5,1.3-1.4,2-2.6,1.9c-1.5-0.2-0.9-1.6-1-2.6s0-1.9,0-2.8V520.9c0-7.2,0-7.2,7.3-7.3C337,513.6,337.9,513.6,338.8,513.7z"/>
<path class="st0" d="M277.5,930.8c3.9,6.3,6.3,13.5,10.2,20.3c1.2-1.5,0.8-3,0.8-4.4c0-43,0-85.9,0-128.9v-296c0-6.4,0-6.4-6.1-7.6
	c-0.6-0.2-1.1-0.4-1.6-0.6c9.1-0.3,9.3-0.1,9.3,8.8c0,141.5,0,283.1,0,424.6c0,1.8,1.2,4.5-1.4,5.3c-3,1-2.8-2.3-3.5-3.8
	C282.4,942.8,278.9,937.2,277.5,930.8z"/>
<path class="st0" d="M598.4,316.5c-0.7-6.4-1.3-12.8-2-19.2c-0.9-9.4-2.8-18.7-4.5-28c-0.4-2.3-1.4-3.3-4-3.2
	c-54.5,0.1-109.1,0.1-163.6,0c-2.9,0-3.5,0.9-3.5,3.6c0.1,32.3,0.1,64.6,0,96.9c0,3,1,3.7,3.8,3.7c20.7-0.1,41.4-0.1,62.1,0
	c1,0,3.4-1.4,3,1.6c-1-1.4-2.6-0.9-3.9-0.9c-20.7,0-41.4-0.1-62.2,0c-3.4,0-4.4-1.1-4.4-4.4c0.1-32.2,0.1-64.4,0.1-96.6
	c0-4.4,0-4.4,4.6-4.4c54.8,0,109.6,0,164.4,0c2.8,0,4.5,0.2,4.7,3.8c0.4,5.8,1.9,11.6,2.9,17.4C597.5,296.6,598.4,306.5,598.4,316.5
	z"/>
<path class="st0" d="M463.5,676.5c4-9.8,9-19.2,13.6-28.8c18.6-38.6,37.2-77.2,55.9-115.8c0.4-0.8,0.9-1.6,1.4-2.4
	c0.7,3-1.5,5.1-2.7,7.4c-4.4,9.4-9.6,18.5-13.7,28.1c-6.2,14.1-13.5,27.8-19.8,41.8c-5.2,11.6-11.2,22.9-16.8,34.3
	c-5.5,11.2-11,22.5-16.4,33.8C464.8,675.8,464.6,676.6,463.5,676.5z"/>
<path class="st0" d="M563.9,468.6c3.4-8.6,8-16.6,11.7-25c7.5-16.6,12.6-33.9,16.4-51.7c3.1-14.4,5.1-29,5.8-43.8
	c0.1-0.7,0.2-1.3,0.5-2c0.5,8.7-0.5,17.5-1.5,26.1c-0.9,7.9-2.3,15.6-4.2,23.3c-2.1,8.4-4.3,16.8-7.1,25c-2.2,6.7-4.7,13.2-7.2,19.8
	c-2.6,6.8-6.1,13.2-9.2,19.7c-1.1,2.3-2.3,4.5-3.4,6.7C565.3,467.6,565.2,468.7,563.9,468.6z"/>
<path class="st0" d="M82.2,525.5c5,8.7,8.9,18,13.3,27c12.5,25.7,24.9,51.5,37.3,77.3c0.6,1.2,1.5,2.4,1.4,3.9
	c-3.5-4.3-5.2-9.5-7.6-14.3c-5.4-11-10.9-22-16.2-33.1c-3.9-8.1-7.6-16.4-11.5-24.6c-4.5-9.3-9.1-18.5-13.6-27.8
	C84.1,531.2,82.2,528.7,82.2,525.5z"/>
<path class="st0" d="M122.3,110.4c-5.8,5.6-11.8,11-17.5,16.7c-10.7,10.6-20.5,22.1-29.3,34.3c-0.5,0.6-1.1,1.2-1.7,1.7
	c-0.1-0.9,0.1-1.9,0.7-2.6c10.3-13.5,21-26.6,33.5-38.2c4.2-3.9,7.9-8.2,12.7-11.4C121.2,110.7,121.7,110.5,122.3,110.4z"/>
<path class="st0" d="M534.4,529.7c4.9-11.6,10.8-22.7,16.2-34c3.7-7.7,7-15.5,11.3-22.8c-0.5,4.4-2.8,8-4.6,11.9
	c-4,8.6-8.2,17-12.3,25.5c-3,6.2-6.1,12.5-9.1,18.7C535.6,529.5,535,529.8,534.4,529.7z"/>
<path class="st0" d="M40,225.6c-6,16.5-11,33.4-14.7,50.6c-0.3-6.7,2.2-12.8,3.7-19.2c1.5-6.1,3.3-12,5.2-17.9
	c1.4-4.3,3-8.5,4.4-12.7C38.8,225.9,39.4,225.6,40,225.6z"/>
<path class="st0" d="M250.1,367.3c6.2,7.5,13,14.3,21.5,19.3c4.2,2.4,8.7,4,12.9,6.1c-5.4,0.1-9.7-2.8-14-5.3
	c-7.5-4.3-13.5-10.2-19.1-16.7C250.6,369.7,249.8,368.7,250.1,367.3z"/>
<path class="st0" d="M332.8,390.6c4.6-2.7,9.4-5,13.7-8.2c7.2-5.3,12.8-12.1,18-19.3c0.4,2-1,3.2-2,4.6c-6.7,9.8-15.7,17-26.3,22.2
	C335.2,390.5,334,390.8,332.8,390.6z"/>
<path class="st0" d="M157.3,85.1c-12.1,7.9-23.6,16.5-35.1,25.4c1.6-3.9,5.5-5.5,8.4-7.9c7.3-5.8,14.9-11.1,22.8-16.1
	C154.5,85.6,155.9,85.1,157.3,85.1z"/>
<path class="st0" d="M358.1,895c4.5-10.9,10.1-21.2,15-31.8c0.5-1.2,1.3-2.2,1.9-3.3c0.1,1,0,2.1-0.4,3.1
	c-5.1,10.4-10.1,20.9-15.1,31.3C359.2,894.8,358.7,895.1,358.1,895z"/>
<path class="st0" d="M25.3,386.4c2.8,11.1,5.1,22.4,8.8,33.3c0.3,0.9,0.7,1.7,1,2.6c0.4,1.4,1.6,2.6,0.7,4.2
	c-2.6-1.9-2.5-5.2-3.2-7.7c-1.8-6.9-4.2-13.5-5.5-20.5C26.4,394.3,25.1,390.5,25.3,386.4z"/>
<path class="st0" d="M56.9,472.8c4.5,7.6,7.7,15.9,11.8,23.8c0.8,1.4,1.5,2.9,2.2,4.4c0.5,0.6,0.5,1.5,0.1,2.1
	c-4.3-7.5-8.1-15.2-11.4-23.2C58.6,477.5,56.7,475.6,56.9,472.8z"/>
<path class="st0" d="M344.3,922.5c3.5-7,6.9-14,10.4-21c0.4-0.8,0.9-1.6,1.4-2.4c0.6,2.5-1.2,4.2-2.1,6.1c-3,6.4-6,12.8-9.1,19.2
	c-0.4,0.6-0.8,1.1-1.4,1.5l-0.1-0.1C342.9,924.5,343.7,923.5,344.3,922.5z"/>
<path class="st0" d="M56.9,189.8l-12.7,25.3c1.3-6.1,4.4-11.4,7.2-16.8C53,195.3,54.1,192,56.9,189.8z"/>
<path class="st0" d="M292.9,394.8c8.6,1.2,17.3,1.2,25.9,0c-0.2,0.8-0.9,1.4-1.8,1.5c-7.5,0.6-14.9,0.6-22.4,0
	C293.8,396.2,293.1,395.6,292.9,394.8z"/>
<path class="st0" d="M44.3,446.8c4,7,7.5,14.3,10.5,21.8c-2.5-0.4-2.2-2.9-2.8-4.3C49.3,458.5,45.5,453.2,44.3,446.8z"/>
<path class="st0" d="M68.7,171.5l-11.8,18.4c0.2-3.4,2.5-5.9,4.1-8.6c2.6-4.3,4.9-8.9,8.5-12.5C70.2,169.9,69.3,170.6,68.7,171.5z"
	/>
<path class="st0" d="M73,505.2c2.7,6.9,6.8,13.2,9.3,20.2c-0.3-0.1-0.9-0.1-1-0.2c-2.8-7.2-7.5-13.4-9.6-20.9
	C72.5,504.1,72.7,504.8,73,505.2z"/>
<path class="st0" d="M389.7,829.6c2.3-6.1,5.2-12,8.5-17.6c-0.3,5.1-3.7,8.9-5.6,13.3C391.9,826.8,392.3,829.3,389.7,829.6z"/>
<path class="st0" d="M419.2,768.5c2.3-6.1,5.2-12,8.5-17.6c-0.3,5.1-3.7,8.9-5.6,13.3C421.4,765.7,421.8,768.2,419.2,768.5z"/>
<path class="st0" d="M448.7,707.4c2.3-6.1,5.2-12,8.5-17.6c-0.3,5.1-3.7,8.9-5.6,13.3C450.9,704.5,451.3,707.1,448.7,707.4z"/>
<path class="st0" d="M264.8,904.8c3.3,5.6,6.2,11.5,8.5,17.6c-2.5-0.4-2.2-2.9-2.8-4.3C268.5,913.7,265.3,909.8,264.8,904.8z"/>
<path class="st0" d="M134.2,633.6c3.4,5.6,6.2,11.5,8.5,17.6c-2.9-2.6-3.9-6.4-5.5-9.7C136,639,133.8,636.8,134.2,633.6z"/>
<path class="st0" d="M37.2,428.6c1.8,6.3,4.9,12.1,7.1,18.3c-3.5-3.4-4.5-8.1-6.1-12.4c-0.7-1.8-2.2-3.6-1.7-5.8
	C36.7,428.4,37,428.3,37.2,428.6C37.2,428.5,37.2,428.5,37.2,428.6z"/>
<path class="st0" d="M23.2,288.8c-0.7,6.1-1.4,12.2-2.1,18.3c-0.5-5.3,0.6-10.5,0.6-15.8C21.6,290.2,22.2,289.2,23.2,288.8z"/>
<path class="st0" d="M21.1,355.5c0.7,6.1,1.4,12.2,2.1,18.3c-1-0.4-1.6-1.4-1.5-2.5C21.6,366,20.6,360.8,21.1,355.5z"/>
<path class="st0" d="M318.8,394.8l14.1-4.3c-1.3,3.1-4.7,2.3-7,3.5C323.6,395,321.2,395.3,318.8,394.8z"/>
<path class="st0" d="M237.4,847.9c2.6,4.2,4.8,8.7,6.4,13.3c-2.7-0.5-2.1-3.3-3-4.9C239.2,853.8,237.4,851.2,237.4,847.9z"/>
<path class="st0" d="M182.6,734.1c2.7,4.2,4.8,8.7,6.4,13.3c-2.7-0.5-2.1-3.3-3-4.9C184.4,740,182.6,737.3,182.6,734.1z"/>
<path class="st0" d="M258.5,891.5c2.6,4.2,4.7,8.7,6.4,13.3c-2.6-0.6-2.1-3.3-3-4.9C260.4,897.3,258.2,894.8,258.5,891.5z"/>
<path class="st0" d="M408.6,790.3c1.7-4.7,3.8-9.1,6.4-13.3C414.1,781.9,411.9,786.4,408.6,790.3z"/>
<path class="st0" d="M155.3,677.2c2.7,4.2,4.8,8.7,6.4,13.4C158.5,686.7,156.3,682.1,155.3,677.2z"/>
<path class="st0" d="M142.6,651.2c2.8,3.9,4.5,8.3,6.3,12.7C145.7,660.3,143.5,655.9,142.6,651.2z"/>
<path class="st0" d="M210.7,792.5c2.5,3.7,4.4,7.7,5.7,11.9c-2.7-0.5-2-3.3-3.1-4.9C212,797.4,210.5,795.2,210.7,792.5z"/>
<path class="st0" d="M23.2,373.8c1.1,4.2,1.8,8.4,2.1,12.7c-3-2-1.1-5.2-2.1-7.8C22.7,377.2,23.2,375.4,23.2,373.8z"/>
<path class="st0" d="M25.4,276.2c-0.4,4.3-1.1,8.5-2.2,12.6c-0.5-3.8,0.7-7.4,0.7-11.1c-0.1-0.7,0.4-1.4,1.2-1.5
	C25.1,276.2,25.2,276.2,25.4,276.2z"/>
<path class="st0" d="M44.3,215.1c-1.1,3.6-2.5,7.2-4.3,10.5C40.1,221.7,41.6,218,44.3,215.1z"/>
<path class="st0" d="M350,511.6c-3.2,1.2-6.6,1.9-10,2.1c1.8-2.8,5-0.8,7.4-2.1C348,511.2,349.1,511.5,350,511.6z"/>
<path class="st0" d="M222.7,817c1.9,2.8,3.3,5.9,4.3,9.1C224.1,823.8,223.3,820.4,222.7,817z"/>
<path class="st0" d="M279.5,513.6c-3.4-0.3-6.9-0.6-10-2.1C273,511.8,276.5,511.3,279.5,513.6z"/>
<path class="st0" d="M195.3,760.1c1.9,2.8,3.3,5.9,4.3,9.1C196.7,766.8,195.9,763.5,195.3,760.1z"/>
<path class="st0" d="M379.1,851.4c0.5-2.5,2.1-4.6,2.9-7c0.6-0.3,0.1-1.7,1.4-1.5C382.8,846.1,381.9,849.2,379.1,851.4z"/>
<path class="st0" d="M250.1,873.9c1.9,2.8,3.4,5.9,4.3,9.1C251.9,880.6,250.4,877.4,250.1,873.9z"/>
<path class="st0" d="M231.1,834.6c1.8,2.6,3.2,5.5,4.1,8.5C232.9,840.8,231.4,837.8,231.1,834.6z"/>
<path class="st0" d="M284.5,392.6c2.9,0.4,5.7,1.1,8.5,2.2C289.9,394.9,286.8,395.3,284.5,392.6z"/>
<path class="st0" d="M268.3,511.5c-2.7-0.5-5.4-0.7-7.9-2.1C263.2,509.7,266.1,509.1,268.3,511.5z"/>
<path class="st0" d="M358.5,509.5c-2.5,1.2-5.2,1.9-8,2.1C352.7,509.3,355.6,509.4,358.5,509.5z"/>
<path class="st0" d="M68.7,171.5c0.3-0.9,0.6-1.8,0.9-2.8c0.7-1,0.9-2.2,2-2.9c0.3-0.3,0.5-0.3,0.7,0.1
	C71.8,168.1,70.5,170.1,68.7,171.5z"/>
<path class="st0" d="M259.9,509.4c-2.3-0.3-4.5-0.9-6.5-2C255.7,507.5,258.2,507.1,259.9,509.4z"/>
<path class="st0" d="M37.2,428.6h-0.7c-0.7-0.5-0.5-1.4-0.7-2.1l-0.7-4.2C36.8,424,36.8,426.4,37.2,428.6z"/>
<path class="st0" d="M440.2,724.9c0.3-1.8,1.1-3.5,2.2-4.9C442.3,722,442.8,724.2,440.2,724.9z"/>
<path class="st0" d="M438.1,729.2c0.2-1.6,0.9-3.1,2.1-4.3C440.2,726.6,440.6,728.6,438.1,729.2z"/>
<path class="st0" d="M167.9,703.2c1.2,1.4,2,3.1,2.2,4.9C168,707.1,167.8,705.2,167.9,703.2z"/>
<path class="st0" d="M385.5,838.1c0.2-1.6,1-3.1,2.1-4.3C387.5,835.5,387.9,837.5,385.5,838.1z"/>
<path class="st0" d="M415,777c0.2-1.6,1-3.1,2.1-4.3C417,774.4,417.4,776.3,415,777z"/>
<path class="st0" d="M243.8,861.2c1.4,1.1,1.8,2.7,2.1,4.2C243.6,864.9,244,862.9,243.8,861.2z"/>
<path class="st0" d="M245.9,865.5c1.4,1.1,1.7,2.7,2.1,4.2C245.7,869.1,246.1,867.1,245.9,865.5z"/>
<path class="st0" d="M254.3,883c1.4,1.1,1.7,2.7,2.1,4.2C254.1,886.6,254.5,884.7,254.3,883z"/>
<path class="st0" d="M189,747.4c1.4,1.1,1.8,2.7,2.1,4.2C188.8,751.1,189.2,749.1,189,747.4z"/>
<path class="st0" d="M356,899.2c0.2-1.6,1-3.1,2.1-4.3C358,896.6,358.4,898.6,356,899.2z"/>
<path class="st0" d="M161.6,690.5c1.4,1.1,1.8,2.6,2.1,4.2C161.4,694.2,161.8,692.2,161.6,690.5z"/>
<path class="st0" d="M163.7,694.8c1.4,1.1,1.7,2.7,2.1,4.2C163.5,698.4,163.9,696.4,163.7,694.8z"/>
<path class="st0" d="M216.4,804.3c1.4,1.1,1.8,2.7,2.1,4.2C216.2,808,216.6,806,216.4,804.3z"/>
<path class="st0" d="M273.3,922.3c1.4,1.1,1.7,2.7,2.1,4.2C273.1,926,273.5,924,273.3,922.3z"/>
<path class="st0" d="M434,737.6c0.3-1.6,1-3.1,2.1-4.3C435.9,735,436.3,737,434,737.6z"/>
<path class="st0" d="M459.2,685.6c0.3-1.8,1.1-3.5,2.2-4.9C461.1,682.6,461.4,684.7,459.2,685.6z"/>
<path class="st0" d="M387.6,833.8c0.2-1.6,1-3.1,2.1-4.3C389.6,831.3,390,833.3,387.6,833.8z"/>
<path class="st0" d="M377.1,855.6c0.2-1.6,1-3.1,2.1-4.3C379,853.1,379.5,855,377.1,855.6z"/>
<path class="st0" d="M446.6,711.6c0.2-1.6,1-3.1,2.1-4.3C448.6,709.1,449,711,446.6,711.6z"/>
<path class="st0" d="M170,708.1c1.4,1.1,1.8,2.7,2.1,4.2C169.8,711.7,170.2,709.8,170,708.1z"/>
<path class="st0" d="M444.5,715.9c0.3-1.6,1-3.1,2.1-4.3C446.5,713.3,446.9,715.2,444.5,715.9z"/>
<path class="st0" d="M226.9,826.1c1.4,1.1,1.7,2.7,2.1,4.2C226.7,829.7,227.1,827.8,226.9,826.1z"/>
<path class="st0" d="M172.1,712.3c1.4,1.1,1.8,2.7,2.1,4.2C171.9,715.9,172.4,714,172.1,712.3z"/>
<path class="st0" d="M199.5,769.2c1.4,1.1,1.7,2.7,2.1,4.2C199.3,772.8,199.7,770.9,199.5,769.2z"/>
<path class="st0" d="M406.6,794.5c0.2-1.6,1-3.1,2.1-4.3C408.5,792,408.9,793.9,406.6,794.5z"/>
<path class="st0" d="M191.1,751.7c1.4,1.1,1.7,2.7,2.1,4.2C190.9,755.3,191.3,753.3,191.1,751.7z"/>
<path class="st0" d="M436.1,733.4c0.2-1.6,1-3.1,2.1-4.3C438,730.8,438.4,732.8,436.1,733.4z"/>
<path class="st0" d="M417.1,772.7c0.2-1.6,1-3.1,2.1-4.3C419.1,770.2,419.5,772.1,417.1,772.7z"/>
<path class="st0" d="M218.5,808.6c1.4,1.1,1.7,2.7,2.1,4.2C218.3,812.2,218.7,810.2,218.5,808.6z"/>
<path class="st0" d="M275.4,926.6c1.1,1.2,1.8,2.7,2.1,4.2C275.3,930.2,275.5,928.2,275.4,926.6z"/>
<path class="st0" d="M256.4,887.2c1.1,1.2,1.8,2.7,2.1,4.2C256.3,890.8,256.6,888.9,256.4,887.2z"/>
<path class="st0" d="M21.1,307.1c0,2.2,0.3,4.4-0.7,6.5C20.6,311.4,19.6,309.1,21.1,307.1z"/>
<path class="st0" d="M20.4,349c1,2.1,0.8,4.3,0.7,6.5C19.6,353.5,20.6,351.2,20.4,349z"/>
<path class="st0" d="M54.8,468.6c1.1,1.2,1.8,2.7,2.1,4.2C54.7,472.2,55,470.3,54.8,468.6z"/>
<path class="st0" d="M561.8,472.8c0.3-1.6,1-3.1,2.1-4.3C563.8,470.2,564.1,472.2,561.8,472.8z"/>
<path class="st0" d="M73,505.2l-1.3-0.9l-0.7-1.3c0-0.7,0-1.4-0.1-2.1C72.1,502.1,72.9,503.6,73,505.2z"/>
<path class="st0" d="M248,869.7c1.1,1.2,1.8,2.7,2.1,4.2C247.9,873.3,248.2,871.4,248,869.7z"/>
<path class="st0" d="M375,859.9c0.3-1.6,1-3.1,2.1-4.3C376.9,857.3,377.3,859.2,375,859.9z"/>
<path class="st0" d="M235.4,843.5c1.1,1.2,1.9,2.8,2.1,4.4C235.6,847,235.2,845.4,235.4,843.5z"/>
<path class="st0" d="M383.4,842.9l-1.4,1.5c0-1.9,0.8-3.6,2.2-4.8c0.6,1,0.2,2.2-0.7,2.7c0,0,0,0,0,0
	C383.4,842.5,383.4,842.7,383.4,842.9z"/>
<path class="st0" d="M229,830.3c1.1,1.2,1.8,2.7,2.1,4.2C228.9,833.9,229.2,832,229,830.3z"/>
<path class="st0" d="M148.9,663.9c1.1,1.2,1.8,2.7,2.1,4.2C148.9,667.4,149.1,665.5,148.9,663.9z"/>
<path class="st0" d="M220.6,812.8c1.1,1.2,1.8,2.7,2.1,4.2C220.5,816.4,220.8,814.5,220.6,812.8z"/>
<path class="st0" d="M151.1,668.6c1.2,1.2,2,2.7,2.1,4.4C151.3,672.1,151.4,670.2,151.1,668.6z"/>
<path class="st0" d="M400.4,807.2c0.3-1.6,1.1-3,2.1-4.2C402.2,804.6,402.5,806.5,400.4,807.2z"/>
<path class="st0" d="M461.4,680.8c0.3-1.6,1-3,2.1-4.2C463.4,678.2,463.6,680.1,461.4,680.8z"/>
<path class="st0" d="M402.4,803c0.3-1.6,1-3,2.1-4.3C404.4,800.4,404.6,802.3,402.4,803z"/>
<path class="st0" d="M404.5,798.8c0.3-1.6,1-3.1,2.1-4.3C406.4,796.2,406.8,798.1,404.5,798.8z"/>
<path class="st0" d="M203.7,777.7c1.1,1.2,1.8,2.7,2.1,4.2C203.6,781.2,203.9,779.3,203.7,777.7z"/>
<path class="st0" d="M201.6,773.5c1.1,1.2,1.8,2.7,2.1,4.2C201.5,777,201.8,775.1,201.6,773.5z"/>
<path class="st0" d="M193.2,755.9c1.1,1.2,1.8,2.7,2.1,4.2C193.1,759.5,193.4,757.6,193.2,755.9z"/>
<path class="st0" d="M429.9,746.1c0.3-1.6,1.1-3,2.1-4.2C431.7,743.5,432,745.4,429.9,746.1z"/>
<path class="st0" d="M431.9,741.9c0.3-1.6,1-3.1,2.1-4.3C433.9,739.3,434.1,741.2,431.9,741.9z"/>
<path class="st0" d="M176.3,720.8c1.1,1.2,1.8,2.7,2.1,4.2C176.2,724.3,176.5,722.5,176.3,720.8z"/>
<path class="st0" d="M174.2,716.5c1.1,1.2,1.8,2.7,2.1,4.2C174.1,720.1,174.4,718.2,174.2,716.5z"/>
<path class="st0" d="M457.1,689.9c0.2-1.6,1-3.1,2.1-4.3C458.9,687.2,459.1,689,457.1,689.9z"/>
<path class="st0" d="M165.8,699c1.1,1.2,1.8,2.7,2.1,4.2C165.7,702.6,166,700.7,165.8,699z"/>
<path class="st0" d="M442.5,720.1c0.3-1.6,1-3.1,2.1-4.3C444.3,717.5,444.7,719.4,442.5,720.1z"/>
<path class="st0" d="M178.5,725.5c1.1,1,1.8,2.3,2,3.8C178.5,728.7,178.8,726.9,178.5,725.5z"/>
<path class="st0" d="M180.6,729.7c1.1,1.2,1.9,2.8,2.1,4.4C180.8,733.2,180.9,731.4,180.6,729.7z"/>
<path class="st0" d="M383.6,842.3c0.2-0.9,0.5-1.8,0.7-2.7l1.2-1.5C385.5,839.7,385.6,841.5,383.6,842.3z"/>
<path class="st0" d="M427.6,751c0.3-1.7,1-3.2,2.1-4.5C429.5,748.2,429.6,750.1,427.6,751z"/>
<path class="st0" d="M398.1,812.1c0.3-1.7,1-3.2,2.1-4.5C400,809.3,400.1,811.2,398.1,812.1z"/>
<path class="st0" d="M153.2,673c1.4,1.1,1.7,2.7,2.1,4.3C153.4,676.4,153.6,674.5,153.2,673z"/>
<path class="st0" d="M205.9,782.4c1.1,1,1.8,2.3,2,3.8C205.9,785.6,206.2,783.8,205.9,782.4z"/>
<path class="st0" d="M208,786.6c1.1,1.2,1.9,2.8,2.1,4.5C208.2,790.1,208.3,788.3,208,786.6z"/>
<path class="st0" d="M72.4,165.9l-0.7-0.1c0.3-1.3,0.4-2.6,2.2-2.7L72.4,165.9z"/>
<path class="st0" d="M344.3,922.5c-0.3,1.1-0.6,2.3-0.9,3.4l-1.4,1.4C342,925.4,342.8,923.7,344.3,922.5z"/>
</svg>
