<svg xmlns="http://www.w3.org/2000/svg" width="22" height="22" viewBox="0 0 22 22">
  <path id="search_FILL0_wght400_GRAD0_opsz48" d="M26.656,27.95l-8.036-8.036a6.733,6.733,0,0,1-2.139,1.237,7.562,7.562,0,0,1-2.6.443A7.608,7.608,0,0,1,8.292,19.3,7.536,7.536,0,0,1,6,13.772,7.536,7.536,0,0,1,8.292,8.242,7.572,7.572,0,0,1,13.853,5.95a7.486,7.486,0,0,1,5.515,2.292,7.562,7.562,0,0,1,2.276,5.531,7.622,7.622,0,0,1-.428,2.536A7.756,7.756,0,0,1,19.933,18.6L28,26.606Zm-12.8-8.189A5.718,5.718,0,0,0,18.069,18a5.794,5.794,0,0,0,1.742-4.232A5.794,5.794,0,0,0,18.069,9.54a5.718,5.718,0,0,0-4.217-1.757A5.8,5.8,0,0,0,9.59,9.54a5.768,5.768,0,0,0-1.757,4.232A5.768,5.768,0,0,0,9.59,18a5.8,5.8,0,0,0,4.262,1.757Z" transform="translate(-6 -5.95)" fill="#69c6c8"/>
</svg>
