<?xml version="1.0" encoding="utf-8"?>
<!-- Generator: Adobe Illustrator 24.2.0, SVG Export Plug-In . SVG Version: 6.00 Build 0)  -->
<svg version="1.1" id="Layer_1" xmlns="http://www.w3.org/2000/svg" xmlns:xlink="http://www.w3.org/1999/xlink" x="0px" y="0px"
	 viewBox="0 0 1024 1024" style="enable-background:new 0 0 1024 1024;" xml:space="preserve">
<style type="text/css">
	.st0{fill:#D4D4D4;}
</style>
<path class="st0" d="M528.9,993.7c-7.3-5.6-9.8-12.9-9.1-22.1c0.6-7.8,0.1-15.6,0.1-24.9h-10.4c-24.1,0-48.3,0-72.5,0
	c-41.1-0.1-68.7-27.1-68.9-68.1c-0.3-47.7-0.1-95.3-0.1-143v-12.3c-4.2,3-6.9,4.8-9.4,6.8c-19.4,14.9-38.8,29.8-58.1,44.8
	c-5.8,4.5-11.6,7.5-18.9,3.8c-6.9-3.6-7.6-10-7.6-16.9c0.1-15.3,0-30.6,0-47.3h-11.9c-37.6,0-75.3,0.3-112.9-0.1
	c-45.5-0.4-79.8-28.1-88.1-70.8c-0.9-4.9-1.3-9.9-1.3-14.9c-0.1-46.7,0-93.4-0.1-140.2c0-8.1,2.3-14.3,11.1-15.9
	c9.8-1.8,16.8,4.1,17,14.8c0.3,13.8,0.1,27.6,0.1,41.4c0,32-0.1,64,0,96c0.1,37.1,23.9,61.2,61.2,61.4c43.6,0.3,87.2,0.1,130.8,0.1
	c19,0,22.2,3.3,22.2,22.7c0,8.8,0,17.5,0,27.5c2.8-1.5,4.7-2.3,6.3-3.5c18.9-14.5,37.8-29,56.5-43.8c2.5-2.2,4.3-5.1,5.3-8.3
	c8.9-28,31.1-45.5,60.3-47c10.3-0.5,20.6-0.1,32.1-0.1v-11.3c0-82.5,0-164.9,0-247.4c0-38-24.3-62.4-62.3-62.5
	c-83.4-0.1-166.9-0.1-250.3,0c-38.1,0-62,24.1-62.2,62.4c0,8.5,0.3,16.9-0.1,25.4c-0.4,9.3-5.7,14.1-14.2,14.1
	c-8.7,0-13.9-4.8-13.7-14.2c0.2-16-0.7-32.2,2.2-47.8c7.2-38.5,41.4-67.5,80.6-67.8c88.4-0.6,176.9-0.2,265.3-0.2
	c5.2,0,10.5,1,16.8,1.6v-10.7c0-44.8-0.1-89.7,0-134.5C425,75.4,470.1,30.4,535.4,30.3c63,0,126.1,0,189.1,0c11,0,16.1,3.7,17.1,12
	c1.2,10.2-4.8,16.2-16.7,16.2c-63,0.1-126.1,0.1-189.1,0.1c-6.6-0.1-13.1,0.4-19.6,1.5c-35.8,6.5-62.4,36.6-62.8,72.9
	c-0.7,53.3-0.4,106.6-0.1,159.9c0,3.4,2.4,7.7,5,10c22.1,18.5,32.8,42.1,32.8,70.9c-0.1,48.9,0.1,97.8-0.2,146.7
	c0,6.7,1.6,11,8.2,12.5c11.5,2.5,23.1,6.4,34.7,6.6c54.2,0.7,108.5,0.3,162.8,0.3c15.8,0,19.9,4.2,20,20.2c0,15.3,0,30.7,0,48.1
	c4-2.8,6.6-4.7,9.2-6.6c24.4-18.7,48.7-37.5,73.4-55.8c4.8-3.3,10.4-5.2,16.2-5.6c18.1-1,36.5,0.4,54.4-1.8
	c37.1-4.5,65.4-35.9,65.6-73.2c0.5-110.7,0.5-221.4,0-332.1c-0.2-40.7-34-73.4-74.9-74.5c-13.8-0.4-27.6,0-41.4-0.2
	c-10.5-0.1-15.9-5.2-15.7-14.4c0.2-8.8,5.4-14,15.5-13.6c22.2,0.8,44.9-0.5,66.3,4.1c45.4,9.7,78.3,51.7,78.5,98.1
	c0.5,111,0.5,222,0,333C963.3,522,917,566.5,859.2,568c-11.6,0.3-23.2-0.5-34.8,0.3c-5.2,0.3-11.1,2.1-15.2,5.2
	c-31.6,23.7-62.9,47.8-94.2,71.8c-5.8,4.4-11.4,7.8-18.8,3.9c-6.9-3.6-7.8-9.8-7.8-16.8c0.2-21,0.1-41.9,0.1-63.5
	c-65.7-4.6-131.3,5.1-196.7-6.5v70.8h10c36.4,0,72.8-0.1,109.1,0c44.7,0.1,71.3,26.7,71.4,71.4c0.1,20.4,0.2,40.8-0.1,61.1
	c-0.2,11.1-6.7,16.7-16.7,15.1c-8.9-1.4-11.4-7.7-11.4-15.7c0-20.1,0-40.1,0-60.2c-0.1-29.8-13.9-43.5-43.9-43.6
	c-56.8,0-113.5,0-170.3,0c-29.9,0-43.5,13.8-43.6,43.8c0,56.4,0,112.9,0,169.3c0,29.8,13.9,43.6,43.8,43.6h86.6
	c17.9,0,21.5,3.5,21.5,21.3c0,2.8,0,5.6,0,9.6c2.5-1.2,4.4-1.8,5.9-2.9c5.5-4.1,11.4-7.9,16.3-12.7c12.5-12,26.5-16.7,44.2-15.7
	c23.5,1.4,38.7-14.5,39.4-38.2c0.2-7.8-0.2-15.7,0.3-23.5c0.5-8.9,5.4-13.3,13.7-13.4s14,4.4,13.9,13.1c0,14,0.6,28.5-2.4,42
	c-6.5,28.7-32.3,48.9-61.7,48.2c-13.2-0.2-23.2,3.5-33,11.9c-14.4,12.4-29.8,23.7-44.7,35.5L528.9,993.7z"/>
<path class="st0" d="M635.6,449.1c-6.1,1.7-12.1,4.5-18.1,4.7c-22.6,0.5-45.2,0.3-67.7,0.2c-13,0-17.6-4.5-17.6-17.4
	c-0.1-54.5-0.1-109.1,0-163.6c0-13,4.5-17.5,17.5-17.6c22.9-0.1,45.8-0.3,68.7,0.1c5.3,0.1,10.5,2.3,18,4.1
	c14-16.6,30.6-33.8,44-53.3c7.1-10.3,8.9-24.3,12.6-36.8c1.6-5.3,0.8-11.4,2.7-16.6c4.1-11.3,12.8-17.8,24.7-18.9
	s21.6,3.9,27.4,14.5c16.2,29.3,18.8,59.8,7.8,91.5c-1.2,3.5-2.5,7.1-3.7,10.6c-0.1,0.2,0.1,0.6,0.4,1.7c21.3,0,42.9,0,64.5,0
	c25.1,0.1,39.9,14.6,39.9,39.5c0.1,43.3,0.1,86.5,0,129.8c0,22-13.7,38.2-35.2,38.5c-47.6,0.7-95.3,0.8-142.9-0.7
	C664,459,649.6,452.6,635.6,449.1z M722.9,162.1c-0.9,3.5-1.5,4.6-1.5,5.7c-1.2,29.7-13.9,54.1-33.7,75.5
	c-15.9,17.3-31.4,35-46.7,52.9c-2.6,3-4.7,7.6-4.7,11.5c-0.4,32.6-0.4,65.2,0,97.8c0.3,3.8,2,7.4,4.8,10
	c13.4,11.5,29.3,16.6,46.8,16.7c42.7,0.1,85.3,0.1,128,0c10.4,0,12.4-2.3,12.4-13c0-41.7,0-83.4,0-125.1c0-12.2-1.4-13.6-13.5-13.6
	c-27.6-0.1-55.2,0-82.8-0.2c-13.9-0.1-19.8-9.2-14.8-22c3.9-9.9,8.6-19.5,12-29.6C737,206.6,735,185.1,722.9,162.1L722.9,162.1z
	 M607.2,425.4V284.1H561v141.2H607.2z"/>
<path class="st0" d="M266.2,457.4h33.7c2.3-13.7,4.6-27.2,6.9-40.7c0.6-3.4,1-6.8,1.8-10.2c2-8.6,8.4-13,16.5-11.5
	c7.7,1.4,12.5,8.2,11.1,16.8c-2.3,14.8-4.9,29.6-7.6,46c13.2,0,25.6-0.4,38,0.2c4.7,0.2,10.8,1.6,13.4,4.8
	c2.8,3.4,4.4,10.6,2.6,14.3c-2,4.1-8.2,8.1-12.9,8.5c-14.9,1.1-30,0.4-45.6,0.4l-5.9,34.7c10.5,0,20.4,0,30.2,0
	c7.2,0,14.4-0.2,21.6,0.2c8.8,0.5,13.8,5.6,14.1,13.3c0.3,8.1-5,14.2-14,14.5c-16,0.5-32,0.5-48,0.1c-6.6-0.2-9.3,1.6-10.1,8.6
	c-1.6,13.7-4.3,27.2-6.8,40.8c-1.9,10.2-8,15.1-16.6,13.7c-8.4-1.4-12.7-8.7-11.1-18.6c2.3-14.2,4.7-28.4,7.2-43.5h-33.9
	c-2.6,15.4-5.3,31-7.9,46.6c-1.9,11.5-8,17-17.1,15.4c-8.8-1.5-12.7-9-10.7-20.6c2.3-13.6,4.6-27.1,7.1-42.4c-9.9,0-19.1,0-28.4,0
	c-4.4,0-8.8,0.2-13.2-0.2c-8.9-0.8-14.3-6.5-14-14.5c0.3-7.6,5.5-13,14.1-13.3c11.9-0.4,23.8-0.6,35.7,0c7.5,0.3,11.6-1.2,12-9.7
	c0.4-8,2.3-15.9,3.8-25c-17.5,0-33.7,0.1-50,0c-9.7-0.1-15.6-5.5-15.7-13.7c-0.1-8.5,6-14.3,16.1-14.4c17.8-0.2,35.7,0,54.3,0
	c2.6-15.3,5-30,7.5-44.8c0.3-2.5,0.8-4.9,1.5-7.4c2.4-8.1,8.4-12.2,16.2-10.6c8.1,1.6,11.9,7.1,11.1,15c-1.2,11.2-3.4,22.3-5.1,33.4
	C267.6,447.7,267,452,266.2,457.4z M261.3,486.4c-1.9,11.2-3.7,22.1-5.6,33.7h33.9c1.8-11.4,3.6-22.2,5.5-33.7H261.3z"/>
<path class="st0" d="M606.1,778.9c-0.1,18.8-6.5,35.9-20.6,47.7c-16.7,13.9-35.3,25.6-53.6,37.5c-3.2,2.1-9.7,2-13.2,0.2
	c-21-10.7-41.5-22.2-57.1-40.5c-15.2-17.8-21.1-38.2-15.5-61.2c8.2-33.5,44.2-48.6,74.2-31.7c2.3,1.3,6.5,1.7,8.8,0.4
	C566,711.5,606.4,736.4,606.1,778.9z M577.9,779.1c0.1-12.6-5.5-21.7-15.6-25.3s-16.7-0.9-25.2,10.3c-7.3,9.7-17.5,9-25.2-2.1
	c-5.2-7.5-11.8-11-20.8-9.5s-14.5,7-17.1,15.5c-4.2,13.8-1.5,27.1,8.6,36.5c12,11.2,26.2,20,39.7,29.6c1.5,1,5,0.8,6.7-0.3
	c12.3-8.5,24.9-16.8,36.4-26.3C573.7,800.5,577.8,790.4,577.9,779.1z"/>
</svg>
